<?xml version="1.0" standalone="no"?><svg xmlns:xlink="http://www.w3.org/1999/xlink" xmlns="http://www.w3.org/2000/svg" viewBox="0 0 100 56.25026674064274" preserveAspectRatio="xMaxYMax slice"><g transform="scale(0.08535700567624088)"><rect x="0" y="0" width="1171.5555555555557" height="659" fill="#fafcff"/><rect x="0" y="0" width="73.22" height="73.22" fill="#f2faff"/><rect x="0" y="0" width="73.22" height="73.22" fill="#3986cf"/><rect x="73.22" y="0" width="73.22" height="73.22" fill="#f8fbff"/><polygon points="73.22,0 146.44,0 146.44,73.22" fill="#5e9dd8"/><rect x="146.44" y="0" width="73.22" height="73.22" fill="#136fc5"/><rect x="146.44" y="0" width="73.22" height="73.22" fill="#aae7ff"/><rect x="219.67" y="0" width="73.22" height="73.22" fill="#8cb9e3"/><polygon points="219.67,0 292.89,0 292.89,73.22" fill="#bad5ef"/><rect x="292.89" y="0" width="73.22" height="73.22" fill="#f2f7fd"/><polygon points="292.89,0 366.11,0 366.11,73.22" fill="#daf4ff"/><rect x="366.11" y="0" width="73.22" height="73.22" fill="#e9f2fb"/><polygon points="366.11,0 439.33000000000004,0 366.11,73.22" fill="#eaf8ff"/><rect x="439.33" y="0" width="73.22" height="73.22" fill="#4e93d4"/><rect x="439.33" y="0" width="73.22" height="73.22" fill="#9dc3e8"/><rect x="512.56" y="0" width="73.22" height="73.22" fill="#a9e7ff"/><polygon points="512.56,0 585.78,73.22 512.56,73.22" fill="#287cca"/><rect x="585.78" y="0" width="73.22" height="73.22" fill="#83b3e1"/><rect x="585.78" y="0" width="73.22" height="73.22" fill="#daf4ff"/><rect x="659" y="0" width="73.22" height="73.22" fill="#f0faff"/><polygon points="659,0 732.22,0 659,73.22" fill="#b1d0ed"/><rect x="732.22" y="0" width="73.22" height="73.22" fill="#3f8ad0"/><polygon points="732.22,0 805.44,0 732.22,73.22" fill="#e6f7ff"/><rect x="805.44" y="0" width="73.22" height="73.22" fill="#99e3ff"/><rect x="805.44" y="0" width="73.22" height="73.22" fill="#f8fbff"/><rect x="878.67" y="0" width="73.22" height="73.22" fill="#9fe4ff"/><polygon points="878.67,0 951.89,0 878.67,73.22" fill="#1570c6"/><rect x="951.89" y="0" width="73.22" height="73.22" fill="#5296d5"/><polygon points="951.89,0 1025.11,0 951.89,73.22" fill="#d4f2ff"/><rect x="1025.11" y="0" width="73.22" height="73.22" fill="#b8d4ef"/><polygon points="1025.11,0 1098.33,73.22 1025.11,73.22" fill="#e4f6ff"/><rect x="1098.33" y="0" width="73.22" height="73.22" fill="#e4f6ff"/><polygon points="1098.33,0 1171.55,0 1171.55,73.22" fill="#5195d5"/><rect x="0" y="73.22" width="73.22" height="73.22" fill="#92bce5"/><rect x="0" y="73.22" width="73.22" height="73.22" fill="#d2f2ff"/><rect x="73.22" y="73.22" width="73.22" height="73.22" fill="#1c74c7"/><polygon points="73.22,73.22 146.44,146.44 73.22,146.44" fill="#84deff"/><rect x="146.44" y="73.22" width="73.22" height="73.22" fill="#e2edf9"/><polygon points="146.44,73.22 219.66,73.22 146.44,146.44" fill="#ace8ff"/><rect x="219.67" y="73.22" width="73.22" height="73.22" fill="#e8f1fa"/><polygon points="292.89,73.22 292.89,146.44 219.67,146.44" fill="#6ea7dc"/><rect x="292.89" y="73.22" width="73.22" height="73.22" fill="#d6f3ff"/><polygon points="292.89,73.22 366.11,146.44 292.89,146.44" fill="#91e1ff"/><rect x="366.11" y="73.22" width="73.22" height="73.22" fill="#8fe0ff"/><rect x="366.11" y="73.22" width="73.22" height="73.22" fill="#b6eaff"/><rect x="439.33" y="73.22" width="73.22" height="73.22" fill="#ccf0ff"/><rect x="439.33" y="73.22" width="73.22" height="73.22" fill="#ddf4ff"/><rect x="512.56" y="73.22" width="73.22" height="73.22" fill="#c1edff"/><polygon points="585.78,73.22 585.78,146.44 512.56,146.44" fill="#4a91d3"/><rect x="585.78" y="73.22" width="73.22" height="73.22" fill="#7aaedf"/><polygon points="659,73.22 659,146.44 585.78,146.44" fill="#c5dcf2"/><rect x="659" y="73.22" width="73.22" height="73.22" fill="#bfd8f0"/><rect x="659" y="73.22" width="73.22" height="73.22" fill="#b0e9ff"/><rect x="732.22" y="73.22" width="73.22" height="73.22" fill="#6fa7dc"/><polygon points="732.22,73.22 805.44,146.44 732.22,146.44" fill="#e8f7ff"/><rect x="805.44" y="73.22" width="73.22" height="73.22" fill="#80dcff"/><polygon points="805.44,73.22 878.6600000000001,73.22 805.44,146.44" fill="#74aade"/><rect x="878.67" y="73.22" width="73.22" height="73.22" fill="#b8ebff"/><rect x="878.67" y="73.22" width="73.22" height="73.22" fill="#c2eeff"/><rect x="951.89" y="73.22" width="73.22" height="73.22" fill="#73aadd"/><rect x="951.89" y="73.22" width="73.22" height="73.22" fill="#85b5e2"/><rect x="1025.11" y="73.22" width="73.22" height="73.22" fill="#126ec5"/><polygon points="1025.11,73.22 1098.33,146.44 1025.11,146.44" fill="#2a7dcb"/><rect x="1098.33" y="73.22" width="73.22" height="73.22" fill="#87deff"/><polygon points="1171.55,73.22 1171.55,146.44 1098.33,146.44" fill="#7cdbff"/><rect x="0" y="146.44" width="73.22" height="73.22" fill="#77daff"/><rect x="0" y="146.44" width="73.22" height="73.22" fill="#f5fbff"/><rect x="73.22" y="146.44" width="73.22" height="73.22" fill="#f1f7fd"/><rect x="73.22" y="146.44" width="73.22" height="73.22" fill="#e1f5ff"/><rect x="146.44" y="146.44" width="73.22" height="73.22" fill="#b3d1ed"/><polygon points="146.44,146.44 219.66,146.44 146.44,219.66" fill="#3081cd"/><rect x="219.67" y="146.44" width="73.22" height="73.22" fill="#d9e8f7"/><rect x="219.67" y="146.44" width="73.22" height="73.22" fill="#cbdff3"/><rect x="292.89" y="146.44" width="73.22" height="73.22" fill="#8de0ff"/><polygon points="292.89,146.44 366.11,146.44 366.11,219.66" fill="#7db0e0"/><rect x="366.11" y="146.44" width="73.22" height="73.22" fill="#5c9cd7"/><rect x="366.11" y="146.44" width="73.22" height="73.22" fill="#c3dbf1"/><rect x="439.33" y="146.44" width="73.22" height="73.22" fill="#a2c6e9"/><rect x="439.33" y="146.44" width="73.22" height="73.22" fill="#98e2ff"/><rect x="512.56" y="146.44" width="73.22" height="73.22" fill="#85b4e2"/><polygon points="512.56,146.44 585.78,146.44 585.78,219.66" fill="#b3d1ed"/><rect x="585.78" y="146.44" width="73.22" height="73.22" fill="#e0f5ff"/><rect x="585.78" y="146.44" width="73.22" height="73.22" fill="#b2e9ff"/><rect x="659" y="146.44" width="73.22" height="73.22" fill="#ebf3fb"/><polygon points="659,146.44 732.22,146.44 732.22,219.66" fill="#d0f1ff"/><rect x="732.22" y="146.44" width="73.22" height="73.22" fill="#8ebae4"/><rect x="732.22" y="146.44" width="73.22" height="73.22" fill="#7adbff"/><rect x="805.44" y="146.44" width="73.22" height="73.22" fill="#a8e7ff"/><polygon points="805.44,146.44 878.6600000000001,146.44 878.6600000000001,219.66" fill="#f2faff"/><rect x="878.67" y="146.44" width="73.22" height="73.22" fill="#a2c6e9"/><rect x="878.67" y="146.44" width="73.22" height="73.22" fill="#c9efff"/><rect x="951.89" y="146.44" width="73.22" height="73.22" fill="#d2f2ff"/><polygon points="951.89,146.44 1025.11,146.44 1025.11,219.66" fill="#a4e6ff"/><rect x="1025.11" y="146.44" width="73.22" height="73.22" fill="#b5d2ee"/><rect x="1025.11" y="146.44" width="73.22" height="73.22" fill="#d6f3ff"/><rect x="1098.33" y="146.44" width="73.22" height="73.22" fill="#d1f1ff"/><polygon points="1098.33,146.44 1171.55,146.44 1171.55,219.66" fill="#4b91d3"/><rect x="0" y="219.67" width="73.22" height="73.22" fill="#2f80cc"/><rect x="0" y="219.67" width="73.22" height="73.22" fill="#89dfff"/><rect x="73.22" y="219.67" width="73.22" height="73.22" fill="#6ca6dc"/><polygon points="73.22,219.67 146.44,219.67 73.22,292.89" fill="#ebf8ff"/><rect x="146.44" y="219.67" width="73.22" height="73.22" fill="#88b7e3"/><rect x="146.44" y="219.67" width="73.22" height="73.22" fill="#b8ebff"/><rect x="219.67" y="219.67" width="73.22" height="73.22" fill="#f2f7fd"/><rect x="219.67" y="219.67" width="73.22" height="73.22" fill="#67a2da"/><rect x="292.89" y="219.67" width="73.22" height="73.22" fill="#106dc4"/><rect x="292.89" y="219.67" width="73.22" height="73.22" fill="#67a2da"/><rect x="366.11" y="219.67" width="73.22" height="73.22" fill="#93bde5"/><rect x="366.11" y="219.67" width="73.22" height="73.22" fill="#bfedff"/><rect x="439.33" y="219.67" width="73.22" height="73.22" fill="#e6f7ff"/><polygon points="512.55,219.67 512.55,292.89 439.33,292.89" fill="#bfd8f0"/><rect x="512.56" y="219.67" width="73.22" height="73.22" fill="#86deff"/><rect x="512.56" y="219.67" width="73.22" height="73.22" fill="#a3c7e9"/><rect x="585.78" y="219.67" width="73.22" height="73.22" fill="#90e0ff"/><polygon points="585.78,219.67 659,292.89 585.78,292.89" fill="#ddf5ff"/><rect x="659" y="219.67" width="73.22" height="73.22" fill="#dceaf8"/><polygon points="659,219.67 732.22,292.89 659,292.89" fill="#b3d0ed"/><rect x="732.22" y="219.67" width="73.22" height="73.22" fill="#d9e8f7"/><polygon points="732.22,219.67 805.44,219.67 805.44,292.89" fill="#96e2ff"/><rect x="805.44" y="219.67" width="73.22" height="73.22" fill="#e8f1fb"/><rect x="805.44" y="219.67" width="73.22" height="73.22" fill="#baebff"/><rect x="878.67" y="219.67" width="73.22" height="73.22" fill="#5094d5"/><polygon points="878.67,219.67 951.89,219.67 878.67,292.89" fill="#a0e5ff"/><rect x="951.89" y="219.67" width="73.22" height="73.22" fill="#c4eeff"/><rect x="951.89" y="219.67" width="73.22" height="73.22" fill="#84ddff"/><rect x="1025.11" y="219.67" width="73.22" height="73.22" fill="#e2f6ff"/><rect x="1025.11" y="219.67" width="73.22" height="73.22" fill="#3785ce"/><rect x="1098.33" y="219.67" width="73.22" height="73.22" fill="#b1e9ff"/><polygon points="1171.55,219.67 1171.55,292.89 1098.33,292.89" fill="#d9f3ff"/><rect x="0" y="292.89" width="73.22" height="73.22" fill="#9de4ff"/><polygon points="0,292.89 73.22,292.89 0,366.11" fill="#e2f6ff"/><rect x="73.22" y="292.89" width="73.22" height="73.22" fill="#2c7ecc"/><polygon points="73.22,292.89 146.44,292.89 73.22,366.11" fill="#2f80cc"/><rect x="146.44" y="292.89" width="73.22" height="73.22" fill="#bdecff"/><rect x="146.44" y="292.89" width="73.22" height="73.22" fill="#3b87cf"/><rect x="219.67" y="292.89" width="73.22" height="73.22" fill="#eef9ff"/><rect x="219.67" y="292.89" width="73.22" height="73.22" fill="#e0f5ff"/><rect x="292.89" y="292.89" width="73.22" height="73.22" fill="#8ee0ff"/><rect x="292.89" y="292.89" width="73.22" height="73.22" fill="#5496d5"/><rect x="366.11" y="292.89" width="73.22" height="73.22" fill="#c0d9f1"/><rect x="366.11" y="292.89" width="73.22" height="73.22" fill="#93e1ff"/><rect x="439.33" y="292.89" width="73.22" height="73.22" fill="#9de4ff"/><rect x="439.33" y="292.89" width="73.22" height="73.22" fill="#f0f6fd"/><rect x="512.56" y="292.89" width="73.22" height="73.22" fill="#e7f0fa"/><polygon points="512.56,292.89 585.78,292.89 512.56,366.11" fill="#cbf0ff"/><rect x="585.78" y="292.89" width="73.22" height="73.22" fill="#91e1ff"/><rect x="585.78" y="292.89" width="73.22" height="73.22" fill="#9be3ff"/><rect x="659" y="292.89" width="73.22" height="73.22" fill="#2077c9"/><rect x="659" y="292.89" width="73.22" height="73.22" fill="#80dcff"/><rect x="732.22" y="292.89" width="73.22" height="73.22" fill="#e1edf9"/><polygon points="732.22,292.89 805.44,366.11 732.22,366.11" fill="#abe7ff"/><rect x="805.44" y="292.89" width="73.22" height="73.22" fill="#e0f5ff"/><polygon points="805.44,292.89 878.6600000000001,292.89 805.44,366.11" fill="#cce0f4"/><rect x="878.67" y="292.89" width="73.22" height="73.22" fill="#9ee4ff"/><polygon points="878.67,292.89 951.89,292.89 878.67,366.11" fill="#81b2e1"/><rect x="951.89" y="292.89" width="73.22" height="73.22" fill="#a1e5ff"/><polygon points="951.89,292.89 1025.11,366.11 951.89,366.11" fill="#6ea6dc"/><rect x="1025.11" y="292.89" width="73.22" height="73.22" fill="#3584ce"/><polygon points="1025.11,292.89 1098.33,366.11 1025.11,366.11" fill="#136fc5"/><rect x="1098.33" y="292.89" width="73.22" height="73.22" fill="#f7fbff"/><rect x="1098.33" y="292.89" width="73.22" height="73.22" fill="#b1e9ff"/><rect x="0" y="366.11" width="73.22" height="73.22" fill="#438cd1"/><polygon points="73.22,366.11 73.22,439.33000000000004 0,439.33000000000004" fill="#d2f2ff"/><rect x="73.22" y="366.11" width="73.22" height="73.22" fill="#e7f7ff"/><rect x="73.22" y="366.11" width="73.22" height="73.22" fill="#9de4ff"/><rect x="146.44" y="366.11" width="73.22" height="73.22" fill="#ebf3fb"/><polygon points="146.44,366.11 219.66,366.11 219.66,439.33000000000004" fill="#d7f3ff"/><rect x="219.67" y="366.11" width="73.22" height="73.22" fill="#dcf4ff"/><polygon points="219.67,366.11 292.89,366.11 292.89,439.33000000000004" fill="#609ed8"/><rect x="292.89" y="366.11" width="73.22" height="73.22" fill="#9ce4ff"/><rect x="292.89" y="366.11" width="73.22" height="73.22" fill="#abcceb"/><rect x="366.11" y="366.11" width="73.22" height="73.22" fill="#b2e9ff"/><rect x="366.11" y="366.11" width="73.22" height="73.22" fill="#2178c9"/><rect x="439.33" y="366.11" width="73.22" height="73.22" fill="#bcecff"/><polygon points="439.33,366.11 512.55,439.33000000000004 439.33,439.33000000000004" fill="#8cdfff"/><rect x="512.56" y="366.11" width="73.22" height="73.22" fill="#aee8ff"/><polygon points="512.56,366.11 585.78,439.33000000000004 512.56,439.33000000000004" fill="#1d75c8"/><rect x="585.78" y="366.11" width="73.22" height="73.22" fill="#2c7ecb"/><polygon points="585.78,366.11 659,366.11 585.78,439.33000000000004" fill="#caefff"/><rect x="659" y="366.11" width="73.22" height="73.22" fill="#4890d3"/><rect x="659" y="366.11" width="73.22" height="73.22" fill="#daf4ff"/><rect x="732.22" y="366.11" width="73.22" height="73.22" fill="#a3e5ff"/><polygon points="732.22,366.11 805.44,439.33000000000004 732.22,439.33000000000004" fill="#a5e6ff"/><rect x="805.44" y="366.11" width="73.22" height="73.22" fill="#e5f6ff"/><rect x="805.44" y="366.11" width="73.22" height="73.22" fill="#cef0ff"/><rect x="878.67" y="366.11" width="73.22" height="73.22" fill="#dcf4ff"/><rect x="878.67" y="366.11" width="73.22" height="73.22" fill="#cef1ff"/><rect x="951.89" y="366.11" width="73.22" height="73.22" fill="#68a3da"/><rect x="951.89" y="366.11" width="73.22" height="73.22" fill="#a5c8ea"/><rect x="1025.11" y="366.11" width="73.22" height="73.22" fill="#cef1ff"/><polygon points="1025.11,366.11 1098.33,366.11 1098.33,439.33000000000004" fill="#6aa4db"/><rect x="1098.33" y="366.11" width="73.22" height="73.22" fill="#9bc2e7"/><rect x="1098.33" y="366.11" width="73.22" height="73.22" fill="#6ba5db"/><rect x="0" y="439.33" width="73.22" height="73.22" fill="#cef1ff"/><rect x="0" y="439.33" width="73.22" height="73.22" fill="#d8f3ff"/><rect x="73.22" y="439.33" width="73.22" height="73.22" fill="#bdecff"/><polygon points="146.44,439.33 146.44,512.55 73.22,512.55" fill="#74aade"/><rect x="146.44" y="439.33" width="73.22" height="73.22" fill="#3986cf"/><rect x="146.44" y="439.33" width="73.22" height="73.22" fill="#e7f7ff"/><rect x="219.67" y="439.33" width="73.22" height="73.22" fill="#ecf8ff"/><rect x="219.67" y="439.33" width="73.22" height="73.22" fill="#3986cf"/><rect x="292.89" y="439.33" width="73.22" height="73.22" fill="#7fdcff"/><polygon points="366.11,439.33 366.11,512.55 292.89,512.55" fill="#2b7ecb"/><rect x="366.11" y="439.33" width="73.22" height="73.22" fill="#3b87cf"/><polygon points="439.33000000000004,439.33 439.33000000000004,512.55 366.11,512.55" fill="#f7fbff"/><rect x="439.33" y="439.33" width="73.22" height="73.22" fill="#f9fcff"/><rect x="439.33" y="439.33" width="73.22" height="73.22" fill="#2a7dcb"/><rect x="512.56" y="439.33" width="73.22" height="73.22" fill="#c8efff"/><polygon points="585.78,439.33 585.78,512.55 512.56,512.55" fill="#c9efff"/><rect x="585.78" y="439.33" width="73.22" height="73.22" fill="#8ee0ff"/><polygon points="585.78,439.33 659,439.33 659,512.55" fill="#f0f9ff"/><rect x="659" y="439.33" width="73.22" height="73.22" fill="#448dd2"/><polygon points="659,439.33 732.22,439.33 659,512.55" fill="#c8def3"/><rect x="732.22" y="439.33" width="73.22" height="73.22" fill="#ddeaf8"/><rect x="732.22" y="439.33" width="73.22" height="73.22" fill="#cfe2f4"/><rect x="805.44" y="439.33" width="73.22" height="73.22" fill="#68a3da"/><polygon points="805.44,439.33 878.6600000000001,439.33 805.44,512.55" fill="#78adde"/><rect x="878.67" y="439.33" width="73.22" height="73.22" fill="#3c88cf"/><polygon points="878.67,439.33 951.89,439.33 878.67,512.55" fill="#80dcff"/><rect x="951.89" y="439.33" width="73.22" height="73.22" fill="#6ca5db"/><polygon points="951.89,439.33 1025.11,439.33 951.89,512.55" fill="#ace8ff"/><rect x="1025.11" y="439.33" width="73.22" height="73.22" fill="#f8fbfe"/><polygon points="1025.11,439.33 1098.33,439.33 1025.11,512.55" fill="#b2e9ff"/><rect x="1098.33" y="439.33" width="73.22" height="73.22" fill="#f0f6fc"/><rect x="1098.33" y="439.33" width="73.22" height="73.22" fill="#cde0f4"/><rect x="0" y="512.56" width="73.22" height="73.22" fill="#b9ebff"/><polygon points="0,512.56 73.22,585.78 0,585.78" fill="#f1faff"/><rect x="73.22" y="512.56" width="73.22" height="73.22" fill="#94e1ff"/><polygon points="73.22,512.56 146.44,512.56 146.44,585.78" fill="#2d7fcc"/><rect x="146.44" y="512.56" width="73.22" height="73.22" fill="#8adfff"/><polygon points="146.44,512.56 219.66,585.78 146.44,585.78" fill="#84ddff"/><rect x="219.67" y="512.56" width="73.22" height="73.22" fill="#9ec4e8"/><polygon points="219.67,512.56 292.89,512.56 219.67,585.78" fill="#afceec"/><rect x="292.89" y="512.56" width="73.22" height="73.22" fill="#88deff"/><rect x="292.89" y="512.56" width="73.22" height="73.22" fill="#1872c6"/><rect x="366.11" y="512.56" width="73.22" height="73.22" fill="#4990d3"/><polygon points="366.11,512.56 439.33000000000004,512.56 366.11,585.78" fill="#a0e5ff"/><rect x="439.33" y="512.56" width="73.22" height="73.22" fill="#abe8ff"/><polygon points="512.55,512.56 512.55,585.78 439.33,585.78" fill="#e8f1fb"/><rect x="512.56" y="512.56" width="73.22" height="73.22" fill="#c4eeff"/><rect x="512.56" y="512.56" width="73.22" height="73.22" fill="#dff5ff"/><rect x="585.78" y="512.56" width="73.22" height="73.22" fill="#1470c5"/><rect x="585.78" y="512.56" width="73.22" height="73.22" fill="#cde1f4"/><rect x="659" y="512.56" width="73.22" height="73.22" fill="#cadef3"/><rect x="659" y="512.56" width="73.22" height="73.22" fill="#619fd9"/><rect x="732.22" y="512.56" width="73.22" height="73.22" fill="#b4d1ed"/><rect x="732.22" y="512.56" width="73.22" height="73.22" fill="#cde1f4"/><rect x="805.44" y="512.56" width="73.22" height="73.22" fill="#bdd6f0"/><rect x="805.44" y="512.56" width="73.22" height="73.22" fill="#116ec5"/><rect x="878.67" y="512.56" width="73.22" height="73.22" fill="#a2e5ff"/><polygon points="878.67,512.56 951.89,585.78 878.67,585.78" fill="#eaf2fb"/><rect x="951.89" y="512.56" width="73.22" height="73.22" fill="#91e1ff"/><rect x="951.89" y="512.56" width="73.22" height="73.22" fill="#b2d0ed"/><rect x="1025.11" y="512.56" width="73.22" height="73.22" fill="#b8ebff"/><rect x="1025.11" y="512.56" width="73.22" height="73.22" fill="#5a9ad7"/><rect x="1098.33" y="512.56" width="73.22" height="73.22" fill="#a1e5ff"/><polygon points="1098.33,512.56 1171.55,512.56 1098.33,585.78" fill="#91e1ff"/><rect x="0" y="585.78" width="73.22" height="73.22" fill="#a5c8ea"/><polygon points="73.22,585.78 73.22,659 0,659" fill="#bcd6f0"/><rect x="73.22" y="585.78" width="73.22" height="73.22" fill="#69a4db"/><polygon points="73.22,585.78 146.44,585.78 73.22,659" fill="#f0f9ff"/><rect x="146.44" y="585.78" width="73.22" height="73.22" fill="#7fdcff"/><polygon points="146.44,585.78 219.66,659 146.44,659" fill="#4a91d3"/><rect x="219.67" y="585.78" width="73.22" height="73.22" fill="#cadff3"/><rect x="219.67" y="585.78" width="73.22" height="73.22" fill="#e8f7ff"/><rect x="292.89" y="585.78" width="73.22" height="73.22" fill="#bcecff"/><rect x="292.89" y="585.78" width="73.22" height="73.22" fill="#6da6dc"/><rect x="366.11" y="585.78" width="73.22" height="73.22" fill="#8bdfff"/><polygon points="366.11,585.78 439.33000000000004,659 366.11,659" fill="#f6fbff"/><rect x="439.33" y="585.78" width="73.22" height="73.22" fill="#5f9ed8"/><rect x="439.33" y="585.78" width="73.22" height="73.22" fill="#6da6dc"/><rect x="512.56" y="585.78" width="73.22" height="73.22" fill="#80b2e1"/><polygon points="512.56,585.78 585.78,659 512.56,659" fill="#9de4ff"/><rect x="585.78" y="585.78" width="73.22" height="73.22" fill="#e8f7ff"/><rect x="585.78" y="585.78" width="73.22" height="73.22" fill="#80b2e1"/><rect x="659" y="585.78" width="73.22" height="73.22" fill="#8fe0ff"/><polygon points="659,585.78 732.22,585.78 732.22,659" fill="#ebf3fb"/><rect x="732.22" y="585.78" width="73.22" height="73.22" fill="#80b2e0"/><polygon points="732.22,585.78 805.44,585.78 732.22,659" fill="#f2faff"/><rect x="805.44" y="585.78" width="73.22" height="73.22" fill="#ebf8ff"/><rect x="805.44" y="585.78" width="73.22" height="73.22" fill="#c9efff"/><rect x="878.67" y="585.78" width="73.22" height="73.22" fill="#beecff"/><polygon points="878.67,585.78 951.89,585.78 951.89,659" fill="#97c0e6"/><rect x="951.89" y="585.78" width="73.22" height="73.22" fill="#7bdbff"/><rect x="951.89" y="585.78" width="73.22" height="73.22" fill="#b5d2ee"/><rect x="1025.11" y="585.78" width="73.22" height="73.22" fill="#8fe0ff"/><rect x="1025.11" y="585.78" width="73.22" height="73.22" fill="#b2d0ed"/><rect x="1098.33" y="585.78" width="73.22" height="73.22" fill="#cbf0ff"/><polygon points="1098.33,585.78 1171.55,585.78 1171.55,659" fill="#3986cf"/></g></svg>